<svg xmlns="http://www.w3.org/2000/svg" xmlns:xlink="http://www.w3.org/1999/xlink" width="2000" zoomAndPan="magnify" viewBox="0 0 1500 1499.999933" height="2000" preserveAspectRatio="xMidYMid meet" version="1.0"><defs><clipPath id="4d83910b81"><path d="M 476.207031 416.265625 L 926.207031 416.265625 L 926.207031 866.265625 L 476.207031 866.265625 Z M 476.207031 416.265625 " clip-rule="nonzero"/></clipPath><clipPath id="feed8c046b"><path d="M 701.207031 416.265625 C 576.945312 416.265625 476.207031 517 476.207031 641.265625 C 476.207031 765.527344 576.945312 866.265625 701.207031 866.265625 C 825.472656 866.265625 926.207031 765.527344 926.207031 641.265625 C 926.207031 517 825.472656 416.265625 701.207031 416.265625 Z M 701.207031 416.265625 " clip-rule="nonzero"/></clipPath><clipPath id="650f5fb940"><path d="M 0.207031 0.265625 L 450.207031 0.265625 L 450.207031 450.265625 L 0.207031 450.265625 Z M 0.207031 0.265625 " clip-rule="nonzero"/></clipPath><clipPath id="0257701585"><path d="M 225.207031 0.265625 C 100.945312 0.265625 0.207031 101 0.207031 225.265625 C 0.207031 349.527344 100.945312 450.265625 225.207031 450.265625 C 349.472656 450.265625 450.207031 349.527344 450.207031 225.265625 C 450.207031 101 349.472656 0.265625 225.207031 0.265625 Z M 225.207031 0.265625 " clip-rule="nonzero"/></clipPath><clipPath id="9c1fcf8308"><rect x="0" width="451" y="0" height="451"/></clipPath></defs><g clip-path="url(#4d83910b81)"><g clip-path="url(#feed8c046b)"><g transform="matrix(1, 0, 0, 1, 476, 416)"><g clip-path="url(#9c1fcf8308)"><g clip-path="url(#650f5fb940)"><g clip-path="url(#0257701585)"><path fill="#f68712" d="M 0.207031 0.265625 L 450.207031 0.265625 L 450.207031 450.265625 L 0.207031 450.265625 Z M 0.207031 0.265625 " fill-opacity="1" fill-rule="nonzero"/></g></g></g></g></g></g><path fill="#f68712" d="M 1045.632812 627.816406 C 987.316406 435.800781 784.390625 327.40625 592.367188 385.707031 C 412.273438 440.394531 305.746094 622.296875 341.304688 803.089844 C 275.011719 756.136719 237.726562 686.84375 237.726562 686.84375 C 261.394531 793.328125 354.972656 853.335938 354.972656 853.335938 C 470.230469 924.300781 642.96875 942.394531 817.578125 889.375 C 912.703125 860.503906 995.617188 814.386719 1060.5 758.484375 C 1063.484375 715.582031 1058.867188 671.417969 1045.632812 627.816406 " fill-opacity="1" fill-rule="nonzero"/><path fill="#2d4f4f" d="M 1328.039062 375.945312 C 1325.445312 374.835938 1322.632812 374.367188 1319.820312 374.597656 C 1319.820312 374.597656 1263.171875 374.320312 1245.59375 380.414062 C 1206.417969 393.996094 1107.65625 467.933594 1107.65625 467.933594 L 1066.179688 498.550781 L 810.242188 539.792969 C 808.9375 539.894531 807.894531 540.90625 807.734375 542.183594 L 801.902344 554.1875 C 801.710938 555.730469 802.832031 557.125 804.371094 557.261719 L 966.210938 572.320312 L 852.457031 655.046875 L 764.695312 617.601562 C 763.972656 617.292969 763.164062 617.316406 762.457031 617.644531 L 722.011719 636.492188 C 720.070312 637.402344 719.863281 640.085938 721.644531 641.277344 L 799.332031 693.195312 L 744.023438 772.933594 C 742.886719 774.566406 743.808594 776.816406 745.757812 777.199219 L 770.664062 782.011719 C 771.425781 782.160156 772.203125 781.976562 772.824219 781.519531 L 858.960938 717.6875 C 858.960938 717.6875 936.179688 679.617188 1026.953125 630.4375 L 964.019531 774.339844 C 963.398438 775.753906 964.078125 777.417969 965.527344 777.996094 L 978.84375 778.695312 C 980.046875 779.175781 981.429688 778.742188 982.148438 777.667969 L 1142.070312 573.621094 L 1071.375 606.050781 C 1102.9375 588.480469 1161.011719 551.171875 1161.011719 551.171875 C 1206.78125 520.589844 1245.84375 495.0625 1272.859375 471.386719 C 1289.398438 456.882812 1325.46875 427.863281 1336.3125 400.507812 C 1340.144531 390.871094 1337.558594 380.027344 1328.039062 375.945312 " fill-opacity="1" fill-rule="nonzero"/><path fill="#2d4f4f" d="M 794.714844 914.652344 C 526.0625 996.230469 261.851562 909.453125 204.582031 720.839844 C 185.265625 657.222656 191.964844 590.140625 219.628906 526.042969 C 168.488281 605.972656 149.957031 694.042969 174.941406 776.328125 C 207.675781 884.128906 308.019531 958.664062 438.144531 987.503906 C 438.144531 987.503906 560.792969 1020.980469 720.421875 992.273438 C 720.421875 992.273438 632.109375 1033.382812 471.519531 1017.585938 C 561.828125 1089.410156 684.75 1117.144531 803.515625 1081.074219 C 940.535156 1039.460938 1034.964844 924.210938 1056.625 791.832031 C 1089.503906 755.382812 1115.308594 716.152344 1132.75 675.71875 C 1066.675781 778.992188 946.148438 868.660156 794.714844 914.652344 " fill-opacity="1" fill-rule="nonzero"/></svg>